<svg width="12" height="16" viewBox="0 0 12 16" fill="none" xmlns="http://www.w3.org/2000/svg">
<path d="M6 0.125C2.89852 0.125 0.375 2.53848 0.375 5.50391C0.375 6.91613 1.01871 8.79418 2.2882 11.086C3.30773 12.9261 4.48723 14.59 5.1007 15.418C5.20437 15.5594 5.33991 15.6745 5.49633 15.7538C5.65276 15.8331 5.82567 15.8744 6.00105 15.8744C6.17644 15.8744 6.34935 15.8331 6.50578 15.7538C6.6622 15.6745 6.79774 15.5594 6.90141 15.418C7.51383 14.59 8.69438 12.9261 9.71391 11.086C10.9813 8.79488 11.625 6.91684 11.625 5.50391C11.625 2.53848 9.10148 0.125 6 0.125ZM6 8C5.55499 8 5.11998 7.86804 4.74997 7.62081C4.37996 7.37357 4.09157 7.02217 3.92127 6.61104C3.75097 6.1999 3.70642 5.7475 3.79323 5.31105C3.88005 4.87459 4.09434 4.47368 4.40901 4.15901C4.72368 3.84434 5.12459 3.63005 5.56105 3.54323C5.9975 3.45642 6.4499 3.50097 6.86104 3.67127C7.27217 3.84157 7.62357 4.12996 7.87081 4.49997C8.11804 4.86998 8.25 5.30499 8.25 5.75C8.24935 6.34654 8.01209 6.91846 7.59027 7.34027C7.16846 7.76209 6.59654 7.99935 6 8Z" fill="#112211"/>
</svg>
